<svg width="453" height="451" viewBox="0 0 453 451" fill="none" xmlns="http://www.w3.org/2000/svg">
<path d="M35.232 326.683C43.3903 334.74 71.1952 361.408 117.148 403.63C161.565 444.44 228.227 374.867 258.945 331.123C147.413 343.355 73.321 196.138 50.2166 121C-32.8983 213.336 5.59562 296.595 35.232 326.683Z" fill="#6B86DE"/>
<path d="M324.564 415.768C332.811 407.61 360.112 379.805 403.336 333.852C445.115 289.435 373.891 222.773 329.108 192.055C341.631 303.587 190.921 377.679 114 400.783C208.527 483.898 293.762 445.404 324.564 415.768Z" fill="#F2F2F0"/>
<path d="M417 125.54C408.833 117.373 381 90.3398 335 47.5398C290.537 6.17016 223.808 76.6958 193.058 121.04C304.705 108.64 378.872 257.873 402 334.04C485.2 240.44 446.667 156.04 417 125.54Z" fill="#EB664C"/>
<path d="M130.528 35.9043C122.362 44.2184 95.3324 72.5539 52.5381 119.384C11.174 164.649 81.6903 232.582 126.028 263.887C113.63 150.226 262.843 74.7202 339 51.175C245.412 -33.5262 161.024 5.70241 130.528 35.9043Z" fill="#233F9D"/>
</svg>
